<svg width="63" height="25" viewBox="0 0 63 25" fill="none" xmlns="http://www.w3.org/2000/svg">
<path d="M10.2404 0L0.0552877 22.5563L0 25H4.02163L12.5006 6.22429L20.9784 25H25V22.8084L14.7596 0H10.2404Z" fill="black"/>
<path d="M33.904 0H29.2842V25H33.904V0Z" fill="black"/>
<path d="M50.5064 0C43.6131 0 38.0059 5.60728 38.0059 12.4994C38.0059 19.3927 43.6131 25 50.5064 25C57.3986 25 63.0059 19.3927 63.0059 12.4994C63.0059 5.60728 57.3986 0 50.5064 0ZM50.5064 20.3802C46.1608 20.3802 42.6257 16.8451 42.6257 12.4994C42.6257 8.15494 46.1608 4.61874 50.5064 4.61874C54.8509 4.61874 58.3871 8.15494 58.3871 12.4994C58.3871 16.8451 54.8509 20.3802 50.5064 20.3802Z" fill="black"/>
</svg>
