<svg width="89" height="35" viewBox="0 0 89 35" fill="none" xmlns="http://www.w3.org/2000/svg">
<path d="M14.3365 0L0.0774028 31.5788L0 35H5.63028L17.5008 8.71401L29.3697 35H35V31.9318L20.6635 0H14.3365Z" fill="white"/>
<path d="M47.4697 0H41.002V35H47.4697V0Z" fill="white"/>
<path d="M70.7098 0C61.0592 0 53.209 7.85019 53.209 17.4992C53.209 27.1498 61.0592 35 70.7098 35C80.3588 35 88.209 27.1498 88.209 17.4992C88.209 7.85019 80.3588 0 70.7098 0ZM70.7098 28.5322C64.6259 28.5322 59.6768 23.5831 59.6768 17.4992C59.6768 11.4169 64.6259 6.46623 70.7098 6.46623C76.7921 6.46623 81.7428 11.4169 81.7428 17.4992C81.7428 23.5831 76.7921 28.5322 70.7098 28.5322Z" fill="white"/>
</svg>
