<svg width="243" height="74" xmlns="http://www.w3.org/2000/svg" xmlns:xlink="http://www.w3.org/1999/xlink" xml:space="preserve" overflow="hidden"><g transform="translate(-1315 -751)"><g><path d="M1317 787C1317 773.745 1327.75 763 1341 763 1354.25 763 1365 773.745 1365 787 1365 800.255 1354.25 811 1341 811 1327.75 811 1317 800.255 1317 787Z" fill="#C03F3B" fill-rule="evenodd" fill-opacity="1"/><path d="M1326 787C1326 778.716 1332.72 772 1341 772 1349.28 772 1356 778.716 1356 787 1356 795.284 1349.28 802 1341 802 1332.72 802 1326 795.284 1326 787Z" fill="#FFFFFF" fill-rule="evenodd" fill-opacity="1"/><path d="M1337.33 783.324 1348 780 1345.07 790.548 1334 794 1337.33 783.324Z" fill="#C03F3B" fill-rule="evenodd" fill-opacity="1"/><path d="M1339 787C1339 785.896 1339.9 785 1341 785 1342.1 785 1343 785.896 1343 787 1343 788.104 1342.1 789 1341 789 1339.9 789 1339 788.104 1339 787Z" fill="#FFFFFF" fill-rule="evenodd" fill-opacity="1"/><text fill="#FFFFFF" fill-opacity="1" font-family="Verdana,Verdana_MSFontService,sans-serif" font-style="normal" font-variant="normal" font-weight="700" font-stretch="normal" font-size="28" text-anchor="start" direction="ltr" writing-mode="lr-tb" unicode-bidi="normal" text-decoration="none" transform="matrix(1 0 0 1 1378.17 798)">CAIR4.eu</text></g></g></svg>