<svg width="50" height="50" xmlns="http://www.w3.org/2000/svg" xmlns:xlink="http://www.w3.org/1999/xlink" xml:space="preserve" overflow="hidden"><g transform="translate(-1315 -660)"><g><path d="M1317 684C1317 670.745 1327.75 660 1341 660 1354.25 660 1365 670.745 1365 684 1365 697.255 1354.25 708 1341 708 1327.75 708 1317 697.255 1317 684Z" fill="#C03F3B" fill-rule="evenodd" fill-opacity="1"/><path d="M1326 684C1326 675.716 1332.72 669 1341 669 1349.28 669 1356 675.716 1356 684 1356 692.284 1349.28 699 1341 699 1332.72 699 1326 692.284 1326 684Z" fill="#FFFFFF" fill-rule="evenodd" fill-opacity="1"/><path d="M1337.33 679.562 1348 676 1345.07 687.301 1334 691 1337.33 679.562Z" fill="#C03F3B" fill-rule="evenodd" fill-opacity="1"/><path d="M1339 683.5C1339 682.119 1339.9 681 1341 681 1342.1 681 1343 682.119 1343 683.5 1343 684.881 1342.1 686 1341 686 1339.9 686 1339 684.881 1339 683.5Z" fill="#FFFFFF" fill-rule="evenodd" fill-opacity="1"/></g></g></svg>